<svg id="Calque_1" data-name="Calque 1" xmlns="http://www.w3.org/2000/svg" viewBox="0 0 1280 418.46"><defs><style>.cls-1{fill:#e9a13e;}</style></defs><title>VDS_Horizontal_Complet_Marigold</title><path class="cls-1" d="M343.4,85.1a13.76,13.76,0,0,1-6.88-2.87,15.08,15.08,0,0,1-5.35-13.86,13.94,13.94,0,0,1,3.17-6.76,15.84,15.84,0,0,1,6.49-4.52,16,16,0,0,1,6.31-1.15,12.91,12.91,0,0,1,5.76,1.51l-2,4.18a9.85,9.85,0,0,0-8.19-.36,10.52,10.52,0,0,0-4.37,3,9.15,9.15,0,0,0-2.06,4.57A10.74,10.74,0,0,0,340,78.4a9.1,9.1,0,0,0,4.6,2,10.51,10.51,0,0,0,5.28-.69,9.79,9.79,0,0,0,5.8-5.82l4.3,1.78a12.85,12.85,0,0,1-3.25,5,16.15,16.15,0,0,1-5.46,3.41A15.89,15.89,0,0,1,343.4,85.1Z"/><path class="cls-1" d="M382.17,65.93l-13.34,4.4-.6,7-5.11,1.68,3.22-30.65,4.88-1.61,20.84,22.73-5.18,1.71Zm-2.92-3.35-8.88-10-1.15,13.31Z"/><path class="cls-1" d="M416.25,50.29a7.08,7.08,0,0,1,2.5,3.91,6.5,6.5,0,0,1-1.2,6.18q-2.18,2.67-7.37,4.1l-13.46,3.73-7.5-27.09,12.69-3.51q4.8-1.32,7.91-.17a6.26,6.26,0,0,1,4,4.45,7,7,0,0,1,.05,3.81A6.54,6.54,0,0,1,412,48.82,7.43,7.43,0,0,1,416.25,50.29Zm-20.91-6.61,2.07,7.47,7.12-2a7.49,7.49,0,0,0,3.78-2.07A3.25,3.25,0,0,0,409,44a3.28,3.28,0,0,0-2.19-2.41,7.5,7.5,0,0,0-4.31.17Zm18.2,11.42q-1.08-3.91-6.92-2.29l-8.13,2.25,2.16,7.81,8.12-2.25Q414.62,59,413.53,55.1Z"/><path class="cls-1" d="M421,32.66,426,31.43l6.62,27.31L427.6,60Z"/><path class="cls-1" d="M460.18,24l5.75,27.51-4.2.88L442.66,36.91l3.9,18.62-5.07,1.06-5.75-27.51,4.21-.88L459,43.66,455.11,25Z"/><path class="cls-1" d="M494.72,42.06l.73,4.31L474.67,49.9,470,22.19l20.23-3.43.73,4.31-15.08,2.56,1.22,7.2,13.38-2.27.72,4.24-13.38,2.27,1.3,7.64Z"/><path class="cls-1" d="M505,21.09l-9.23,1.26-.6-4.37,23.63-3.24.6,4.38-9.23,1.27,3.22,23.47-5.17.71Z"/><path class="cls-1" d="M537.87,12.57l12.24-1.09a17.58,17.58,0,0,1,8.11,1A12.94,12.94,0,0,1,564.06,17a14,14,0,0,1,2.57,7.17,14,14,0,0,1-1.27,7.51,12.87,12.87,0,0,1-5,5.4,17.59,17.59,0,0,1-7.8,2.45l-12.23,1.09ZM552,35.1a11.93,11.93,0,0,0,5.31-1.66,8.43,8.43,0,0,0,3.3-3.68,10,10,0,0,0,.81-5.17,10,10,0,0,0-1.71-4.94,8.48,8.48,0,0,0-3.9-3,12,12,0,0,0-5.53-.7l-6.8.61,1.71,19.2Z"/><path class="cls-1" d="M595.58,32.16l.24,4.37-21,1.17L573.22,9.64,593.7,8.51l.24,4.37-15.27.85.41,7.29,13.55-.75.24,4.29-13.55.75.43,7.74Z"/><path class="cls-1" d="M634,35.66l-5.84-8.16a10.6,10.6,0,0,1-1.08.05l-6.34.08.1,8.19-5.22.06-.34-28.1,11.56-.14a15.55,15.55,0,0,1,6.38,1.13,9.24,9.24,0,0,1,4.2,3.4,9.67,9.67,0,0,1,1.51,5.32A9.49,9.49,0,0,1,637.4,23,9.17,9.17,0,0,1,633,26.43l6.58,9.16Zm-2.16-22.22a8.05,8.05,0,0,0-5.2-1.38l-6.1.08.14,11.2,6.1-.08a7.9,7.9,0,0,0,5.16-1.53,5.1,5.1,0,0,0,1.72-4.17A5.05,5.05,0,0,0,631.81,13.44Z"/><path class="cls-1" d="M667.55,31.67,667.46,36l-21.07-.38.5-28.1,20.51.37-.08,4.38L652,12l-.13,7.31,13.57.24-.08,4.29-13.57-.24-.14,7.75ZM659.4,0l5.9.11-7.08,5.38-4.33-.08Z"/><path class="cls-1" d="M680.94,12.84l-.4,8.55L694.1,22l-.21,4.41-13.55-.63-.5,10.75-5.21-.24,1.3-28.07,20.49,1-.2,4.37Z"/><path class="cls-1" d="M703.7,9.65l5.2.38-1.75,23.62,14.66,1.09-.33,4.41-19.86-1.48Z"/><path class="cls-1" d="M748.41,37.49,748,41.84l-21-2.17,2.89-28,20.41,2.11-.45,4.35-15.22-1.57-.75,7.27,13.5,1.39-.44,4.28-13.5-1.4-.8,7.71Z"/><path class="cls-1" d="M772.33,45.06,766.2,33.45,757.29,43l-5.89-.8,12.27-12.8-7.93-15,5.85.79,5.78,10.87,8.39-9,5.61.76L769.78,30l8.51,15.82Z"/><path class="cls-1" d="M788.21,46a13.8,13.8,0,0,1-4.45-6,14.21,14.21,0,0,1-.68-7.63,14.21,14.21,0,0,1,3.2-7,13.75,13.75,0,0,1,6.23-4.18,17,17,0,0,1,15.27,2.64,13.86,13.86,0,0,1,4.46,6,14.2,14.2,0,0,1,.67,7.65,14.2,14.2,0,0,1-3.2,7,13.89,13.89,0,0,1-6.22,4.16A17,17,0,0,1,788.21,46Zm13.3-1.73a9.17,9.17,0,0,0,4.09-2.88,10.7,10.7,0,0,0,1.73-10,9.15,9.15,0,0,0-2.88-4.08,10.75,10.75,0,0,0-10-1.73,9.19,9.19,0,0,0-4.08,2.88,10.67,10.67,0,0,0-1.73,10,9.12,9.12,0,0,0,2.88,4.08,10.74,10.74,0,0,0,10,1.73Z"/><path class="cls-1" d="M823.13,25.3l5.11,1.08-4.91,23.17,14.37,3-.92,4.32L817.3,52.79Z"/><path class="cls-1" d="M847.2,57.92a13.79,13.79,0,0,1-4-6.35,14.91,14.91,0,0,1,3.64-14.36,13.81,13.81,0,0,1,6.53-3.69,17,17,0,0,1,15,3.81,13.81,13.81,0,0,1,4,6.33,15,15,0,0,1-3.65,14.4,13.86,13.86,0,0,1-6.52,3.67,17,17,0,0,1-15-3.81Zm13.39-.7a9.17,9.17,0,0,0,4.29-2.56,10.68,10.68,0,0,0,2.5-9.85,9.14,9.14,0,0,0-2.55-4.29A10.73,10.73,0,0,0,855,38a9.14,9.14,0,0,0-4.29,2.55,10.68,10.68,0,0,0-2.5,9.85,9.16,9.16,0,0,0,2.55,4.29,10.76,10.76,0,0,0,9.81,2.49Z"/><path class="cls-1" d="M898.1,58.75l4.72,1.45-3.29,10.71A15.66,15.66,0,0,1,893.92,72,19.38,19.38,0,0,1,888,71.1,16,16,0,0,1,881.11,67a13.84,13.84,0,0,1-3.67-6.52,15,15,0,0,1,4.35-14.2A13.79,13.79,0,0,1,888.51,43a16.24,16.24,0,0,1,8,.5,17.15,17.15,0,0,1,5.8,3A12.57,12.57,0,0,1,906,51.17l-4.09,2.11a10.52,10.52,0,0,0-6.46-5.34,11,11,0,0,0-5.42-.36,9.1,9.1,0,0,0-4.48,2.28,10,10,0,0,0-2.75,4.53,9.88,9.88,0,0,0-.23,5.22A9.31,9.31,0,0,0,885,64a10.61,10.61,0,0,0,4.63,2.76,11.31,11.31,0,0,0,5.95.32Z"/><path class="cls-1" d="M915.63,50.13l4.93,1.71-9.23,26.55-4.93-1.72Z"/><path class="cls-1" d="M940.93,84.9,939.35,89l-19.64-7.65,10.2-26.19L949,62.59l-1.59,4.08-14.26-5.55-2.65,6.81,12.65,4.93-1.56,4L929,71.92l-2.81,7.22Z"/><path class="cls-1" d="M390.73,413.29H380l-2.24,5h-2.45l8.87-19.19h2.41l8.87,19.19H393Zm-11-21.23h3.23l4.65,4.21H385.2Zm10.16,19.26-4.48-10-4.52,10Z"/><path class="cls-1" d="M410.71,399.06h2.45v17.15h10.7v2H410.71Z"/><path class="cls-1" d="M441.08,413.29H430.31l-2.24,5h-2.45l8.87-19.19h2.41l8.87,19.19h-2.45Zm-.88-2-4.48-10-4.52,10Z"/><path class="cls-1" d="M474.2,418.25l-4.35-6c-.59,0-1,.07-1.32.07h-5v6h-2.45V399.06h7.47a9,9,0,0,1,5.88,1.75,6,6,0,0,1,2.14,4.88,6.25,6.25,0,0,1-1.14,3.77,6.42,6.42,0,0,1-3.25,2.28l4.69,6.52Zm-1.58-9.17a4.66,4.66,0,0,0,0-6.79,6.56,6.56,0,0,0-4.25-1.19H463.5v9.17h4.89A6.62,6.62,0,0,0,472.62,409.08Z"/><path class="cls-1" d="M497.58,416.22v2h-14V399.06h13.55v2H486.06v6.42H496v2h-9.92v6.69Z"/><path class="cls-1" d="M520.74,399.06v19.19h-2l-12.06-15v15H504.2V399.06h2l12.06,15v-15Z"/><path class="cls-1" d="M532.33,417.18a9.47,9.47,0,0,1-3.68-3.51,9.73,9.73,0,0,1,3.68-13.55,10.62,10.62,0,0,1,5.23-1.29,9.34,9.34,0,0,1,7.3,2.85l-1.56,1.6a7.62,7.62,0,0,0-5.67-2.31,8.2,8.2,0,0,0-4,1,7.35,7.35,0,0,0-2.82,2.75,8.06,8.06,0,0,0,0,7.85,7.28,7.28,0,0,0,2.82,2.75,8.15,8.15,0,0,0,4,1A7.5,7.5,0,0,0,543.3,414l1.56,1.6a9.41,9.41,0,0,1-7.3,2.85A10.77,10.77,0,0,1,532.33,417.18Z"/><path class="cls-1" d="M553.65,417.18a9.42,9.42,0,0,1-3.7-3.51,9.71,9.71,0,0,1,3.7-13.55,10.7,10.7,0,0,1,5.25-1.29,10.83,10.83,0,0,1,5.27,1.27,9.49,9.49,0,0,1,3.69,3.53,10.08,10.08,0,0,1,0,10,9.51,9.51,0,0,1-3.69,3.51,11.46,11.46,0,0,1-10.51,0Zm9.25-1.83a7.25,7.25,0,0,0,2.82-2.75,7.63,7.63,0,0,0,1-3.92,7.72,7.72,0,0,0-1-4A7.32,7.32,0,0,0,562.9,402a8.54,8.54,0,0,0-8,0,7.35,7.35,0,0,0-2.82,2.75,7.72,7.72,0,0,0-1,4,7.63,7.63,0,0,0,1,3.92,7.28,7.28,0,0,0,2.82,2.75,8.5,8.5,0,0,0,8,0Z"/><path class="cls-1" d="M592.29,399.06v19.19h-2l-12.06-15v15h-2.45V399.06h2l12.06,15v-15Z"/><path class="cls-1" d="M604.11,401.1h-6.76v-2h16v2h-6.76v17.15h-2.45Z"/><path class="cls-1" d="M631.52,418.25l-4.35-6c-.59,0-1,.07-1.32.07h-5v6h-2.45V399.06h7.47a9,9,0,0,1,5.88,1.75,6,6,0,0,1,2.14,4.88,6.25,6.25,0,0,1-1.14,3.77,6.42,6.42,0,0,1-3.25,2.28l4.69,6.52Zm-1.58-9.17a4.66,4.66,0,0,0,0-6.79,6.56,6.56,0,0,0-4.25-1.19h-4.89v9.17h4.89A6.62,6.62,0,0,0,629.95,409.08Z"/><path class="cls-1" d="M654.9,416.22v2h-14V399.06h13.55v2H643.38v6.42h9.92v2h-9.92v6.69Z"/><path class="cls-1" d="M671.78,399.06h8.05a12.19,12.19,0,0,1,5.57,1.2,8.71,8.71,0,0,1,3.65,3.36,10.55,10.55,0,0,1,0,10A8.62,8.62,0,0,1,685.4,417a12.13,12.13,0,0,1-5.57,1.21h-8.05Zm7.95,17.15a8.33,8.33,0,0,0,6-2.06,8.1,8.1,0,0,0,0-11,8.35,8.35,0,0,0-6-2.05h-5.5v15.12Z"/><path class="cls-1" d="M698.84,416.28a8.39,8.39,0,0,1-2.16-6.18v-11h2.45v11a6.77,6.77,0,0,0,1.46,4.72,5.47,5.47,0,0,0,4.25,1.6,5.53,5.53,0,0,0,4.27-1.6,6.72,6.72,0,0,0,1.48-4.72v-11H713v11a8.44,8.44,0,0,1-2.14,6.18,9.33,9.33,0,0,1-12,0Z"/><path class="cls-1" d="M747,410a4.73,4.73,0,0,1,1,3.11,4.4,4.4,0,0,1-1.88,3.82,9.53,9.53,0,0,1-5.56,1.34h-9.1V399.06h8.56a8.71,8.71,0,0,1,5.11,1.29A4.2,4.2,0,0,1,747,404a4.46,4.46,0,0,1-2.85,4.35A5.17,5.17,0,0,1,747,410ZM734,401v6.62h5.91a6.12,6.12,0,0,0,3.5-.85,2.83,2.83,0,0,0,1.22-2.48,2.79,2.79,0,0,0-1.22-2.47,6.2,6.2,0,0,0-3.5-.83Zm11.62,12a2.89,2.89,0,0,0-1.27-2.6,7,7,0,0,0-3.79-.83H734v6.86h6.56Q745.57,416.35,745.57,412.92Z"/><path class="cls-1" d="M754.54,399.06H757v19.19h-2.45Z"/><path class="cls-1" d="M779.43,416.22v2h-14V399.06H779v2H767.92v6.42h9.92v2h-9.92v6.69Z"/><path class="cls-1" d="M802.6,399.06v19.19h-2l-12.06-15v15h-2.45V399.06h2l12.06,15v-15Z"/><path class="cls-1" d="M835.32,416.22v2h-14V399.06h13.55v2H823.8v6.42h9.92v2H823.8v6.69Zm-3.8-19.94-3.36-2.82-3.36,2.82h-2.24l4.38-4.21h2.45l4.38,4.21Z"/><path class="cls-1" d="M845.27,401.1h-6.76v-2h16v2h-6.76v17.15h-2.45Z"/><path class="cls-1" d="M872.69,418.25l-4.35-6c-.59,0-1,.07-1.32.07h-5v6h-2.45V399.06H867a9,9,0,0,1,5.88,1.75,6,6,0,0,1,2.14,4.88,6.25,6.25,0,0,1-1.14,3.77,6.42,6.42,0,0,1-3.25,2.28l4.69,6.52Zm-1.58-9.17a4.66,4.66,0,0,0,0-6.79,6.56,6.56,0,0,0-4.25-1.19H862v9.17h4.89A6.62,6.62,0,0,0,871.11,409.08Z"/><path class="cls-1" d="M896.06,416.22v2h-14V399.06h13.55v2H884.54v6.42h9.92v2h-9.92v6.69Z"/><path class="cls-1" d="M901.66,417.89a1.72,1.72,0,0,1-.51-1.24,1.66,1.66,0,0,1,.51-1.24,1.75,1.75,0,0,1,1.26-.49,1.8,1.8,0,0,1,1.29.49,1.66,1.66,0,0,1,.51,1.24,1.69,1.69,0,0,1-.52,1.24,1.73,1.73,0,0,1-1.28.53A1.67,1.67,0,0,1,901.66,417.89Z"/><circle class="cls-1" cx="333.54" cy="285.74" r="14.12"/><polygon class="cls-1" points="72.73 293.33 124.82 167.58 108.35 167.58 62.62 278.14 61.55 278.14 16.43 167.58 0 167.58 51.39 293.33 72.73 293.33"/><path class="cls-1" d="M169.77,247.08A40.09,40.09,0,1,0,129.68,207,40.13,40.13,0,0,0,169.77,247.08Zm0-65a24.9,24.9,0,1,1-24.9,24.9A24.93,24.93,0,0,1,169.77,182.09Z"/><path class="cls-1" d="M378.14,245.75l-44.75-78.17-44.45,78.17Zm-44.7-47.53L352,230.56h-36.9Z"/><polygon class="cls-1" points="522.8 278.14 482.84 278.14 482.84 225.07 519.61 225.07 519.61 210.84 482.84 210.84 482.84 182.76 525.86 182.76 525.86 167.58 467.65 167.58 467.65 293.33 522.8 293.33 522.8 278.14"/><path class="cls-1" d="M166.38,278.53c-21.71,0-43.28-6.79-56.59-17.83l-6,14.55c16.08,11.65,39,18.46,62.62,18.46,45.56,0,86-23.48,108.09-62.83l35.8-63.3H292.66l-31.14,55.37L230,167.58H212.45l39.66,69.55C231.75,263.3,200.74,278.53,166.38,278.53Z"/><path class="cls-1" d="M631.33,167.58H588.41V293.31h42.92a62.87,62.87,0,1,0,0-125.74Zm0,110.58H603.56V182.73h27.77a47.72,47.72,0,1,1,0,95.43Z"/><path class="cls-1" d="M993.53,229.73A174,174,0,0,0,971,223a164.12,164.12,0,0,1-17.13-4.7,29.62,29.62,0,0,1-10.56-6.21A13.58,13.58,0,0,1,939,201.69q0-8.69,7.54-14.2t22.63-5.5a62.49,62.49,0,0,1,17.39,2.57,64.41,64.41,0,0,1,16.68,7.54l5.86-14.2a57.63,57.63,0,0,0-18.28-8.16,83.67,83.67,0,0,0-21.65-2.84q-15.8,0-26.45,4.79t-15.88,12.78a32,32,0,0,0-5.24,17.92q0,11.9,6.12,18.9a37.39,37.39,0,0,0,14.73,10.38,178,178,0,0,0,22.63,6.74q11.18,2.66,17.3,4.79a27.92,27.92,0,0,1,10.3,6.13,13.73,13.73,0,0,1,4.17,10.38q0,8.7-7.63,13.93T966.2,278.9a66.88,66.88,0,0,1-22.8-4,54.37,54.37,0,0,1-18.19-10.38l-6.57,13.84q7.45,6.92,20.5,11.27A85,85,0,0,0,966.2,294q15.8,0,26.62-4.7T1009,276.5a31.73,31.73,0,0,0,5.33-17.84q0-11.71-6.13-18.64A37.89,37.89,0,0,0,993.53,229.73Z"/><path class="cls-1" d="M851.8,229.73A174,174,0,0,0,829.27,223a164.12,164.12,0,0,1-17.13-4.7,29.62,29.62,0,0,1-10.56-6.21,13.58,13.58,0,0,1-4.26-10.38q0-8.69,7.54-14.2t22.63-5.5a62.49,62.49,0,0,1,17.39,2.57,64.41,64.41,0,0,1,16.68,7.54l5.86-14.2a57.63,57.63,0,0,0-18.28-8.16,83.67,83.67,0,0,0-21.65-2.84q-15.8,0-26.45,4.79t-15.88,12.78a32,32,0,0,0-5.24,17.92q0,11.9,6.12,18.9a37.39,37.39,0,0,0,14.73,10.38,178,178,0,0,0,22.63,6.74q11.18,2.66,17.3,4.79a27.92,27.92,0,0,1,10.3,6.13,13.73,13.73,0,0,1,4.17,10.38q0,8.7-7.63,13.93t-23.07,5.24a66.88,66.88,0,0,1-22.8-4,54.37,54.37,0,0,1-18.19-10.38l-6.57,13.84q7.45,6.92,20.5,11.27A85,85,0,0,0,824.47,294q15.8,0,26.62-4.7t16.15-12.78a31.73,31.73,0,0,0,5.33-17.84q0-11.71-6.13-18.64A37.89,37.89,0,0,0,851.8,229.73Z"/><path class="cls-1" d="M1273.87,240a37.92,37.92,0,0,0-14.64-10.3A174,174,0,0,0,1236.7,223a164.12,164.12,0,0,1-17.13-4.7,29.58,29.58,0,0,1-10.56-6.21,13.58,13.58,0,0,1-4.26-10.38q0-8.69,7.54-14.2t22.63-5.5a62.39,62.39,0,0,1,17.39,2.57,64.3,64.3,0,0,1,16.68,7.54l5.86-14.2a57.63,57.63,0,0,0-18.28-8.16,83.67,83.67,0,0,0-21.65-2.84q-15.8,0-26.45,4.79t-15.88,12.78a32,32,0,0,0-5.24,17.92q0,11.9,6.13,18.9a37.33,37.33,0,0,0,14.73,10.38,177.53,177.53,0,0,0,22.63,6.74q11.18,2.66,17.31,4.79a27.9,27.9,0,0,1,10.29,6.12,13.73,13.73,0,0,1,4.17,10.38q0,8.7-7.63,13.93t-23.07,5.24a66.81,66.81,0,0,1-22.8-4,54.39,54.39,0,0,1-18.19-10.38l-6.57,13.84q7.45,6.92,20.5,11.27A85,85,0,0,0,1231.9,294q15.8,0,26.62-4.7t16.15-12.78a31.72,31.72,0,0,0,5.33-17.84Q1280,247,1273.87,240Z"/><polygon class="cls-1" points="765.78 231.37 725.37 231.37 725.37 209.59 762.12 209.59 762.12 195.87 725.37 195.87 725.37 182.23 768.84 182.23 768.84 167.58 710.64 167.58 710.64 246.2 765.78 246.2 765.78 231.37"/><circle class="cls-1" cx="736.14" cy="285.74" r="14.12"/><path class="cls-1" d="M1172.83,236.36c0,38.35-32.78,57-70.79,57V278.14c30.92,0,52.91-14.49,55.1-37.65l-40-45.19V246.2h-15.19V167.58h11l44.69,50.81V167.58h15.18Z"/><path class="cls-1" d="M450.49,209.21H435.3v14.23c-1.32,4.35-8.22,7.51-15.07,7.51-13.84,0-25.1-11-25.1-24.42s11.26-24.42,25.1-24.42a25.32,25.32,0,0,1,19.3,8.81L451.07,181a40.49,40.49,0,0,0-30.84-14.12C398,166.9,380,184.67,380,206.51s18.07,39.61,40.28,39.61a30.49,30.49,0,0,0,14.52-3.29c-3.42,21.78-24.9,35.31-54.75,35.31v15.19c37.53,0,69.69-18.19,70.49-55.57Z"/><polygon class="cls-1" points="1082.38 231.37 1041.96 231.37 1041.96 209.59 1078.71 209.59 1078.71 195.87 1041.96 195.87 1041.96 182.23 1085.44 182.23 1085.44 167.58 1027.23 167.58 1027.23 246.2 1082.38 246.2 1082.38 231.37"/><circle class="cls-1" cx="1052.74" cy="285.74" r="14.12"/></svg>