<svg id="Calque_1" data-name="Calque 1" xmlns="http://www.w3.org/2000/svg" viewBox="0 0 1280 907.31"><defs><style>.cls-1{fill:none;stroke:#e9a13e;stroke-miterlimit:10;stroke-width:10px;}.cls-2{fill:#e9a13e;}</style></defs><title>VDS_Couverture_Marigold</title><path class="cls-1" d="M-355,322.15h48.64c238.65,0,432.11,193.46,432.11,432.11"/><line class="cls-1" x1="367.08" y1="762.78" x2="367.08" y2="1189.41"/><line class="cls-1" x1="1467.21" y1="747.61" x2="1034.97" y2="747.61"/><path class="cls-1" d="M555.2,762.61c197.5,0,357.61,160.11,357.61,357.61"/><path class="cls-1" d="M1635,585.17h-48.64c-238.65,0-432.11-193.46-432.11-432.11"/><line class="cls-1" x1="912.92" y1="144.46" x2="912.92" y2="-282.1"/><line class="cls-1" x1="-187.21" y1="159.71" x2="245.03" y2="159.71"/><path class="cls-1" d="M724.8,144.71c-197.5,0-357.61-160.11-357.61-357.61"/><path class="cls-2" d="M466.21,378.72a8.06,8.06,0,0,1-4-1.68,8.84,8.84,0,0,1-3.13-8.12,8.17,8.17,0,0,1,1.86-4,9.28,9.28,0,0,1,3.8-2.65,9.4,9.4,0,0,1,3.7-.67,7.56,7.56,0,0,1,3.37.89L470.61,365a5.77,5.77,0,0,0-4.8-.21,6.17,6.17,0,0,0-2.56,1.79,5.36,5.36,0,0,0-1.21,2.68,6.29,6.29,0,0,0,2.16,5.57,5.33,5.33,0,0,0,2.7,1.16,6.16,6.16,0,0,0,3.1-.4,5.74,5.74,0,0,0,3.4-3.41l2.52,1a7.53,7.53,0,0,1-1.91,2.93,9.46,9.46,0,0,1-3.2,2A9.31,9.31,0,0,1,466.21,378.72Z"/><path class="cls-2" d="M488.92,367.48l-7.82,2.58-.35,4.13-3,1,1.89-18,2.86-.94,12.21,13.32-3,1Zm-1.71-2-5.2-5.87-.68,7.8Z"/><path class="cls-2" d="M508.89,358.32a4.15,4.15,0,0,1,1.46,2.29,3.81,3.81,0,0,1-.71,3.62,8.26,8.26,0,0,1-4.32,2.4l-7.89,2.19L493.05,353l7.44-2.06a7.59,7.59,0,0,1,4.63-.1,3.67,3.67,0,0,1,2.36,2.61,4.12,4.12,0,0,1,0,2.23,3.83,3.83,0,0,1-1.11,1.82A4.35,4.35,0,0,1,508.89,358.32Zm-12.25-3.87,1.21,4.38,4.17-1.15a4.39,4.39,0,0,0,2.21-1.21,1.9,1.9,0,0,0,.38-1.85,1.92,1.92,0,0,0-1.28-1.41,4.39,4.39,0,0,0-2.52.1Zm10.66,6.69q-.63-2.29-4.05-1.34l-4.76,1.32,1.27,4.58,4.76-1.32Q507.94,363.43,507.3,361.14Z"/><path class="cls-2" d="M511.66,348l3-.72,3.88,16-3,.72Z"/><path class="cls-2" d="M534.63,342.9,538,359l-2.46.51-11.17-9.06,2.28,10.91-3,.62-3.37-16.12,2.47-.51,11.17,9.06-2.28-10.92Z"/><path class="cls-2" d="M554.87,353.5l.43,2.53-12.18,2.06-2.75-16.24,11.85-2,.43,2.53-8.84,1.5.71,4.22,7.84-1.33.42,2.48L545,350.57l.76,4.48Z"/><path class="cls-2" d="M560.92,341.21l-5.41.74-.35-2.56,13.84-1.9.35,2.56-5.41.74,1.89,13.75-3,.42Z"/><path class="cls-2" d="M580.15,336.22l7.17-.64a10.3,10.3,0,0,1,4.75.6,7.58,7.58,0,0,1,3.42,2.6,8.82,8.82,0,0,1,.76,8.6,7.54,7.54,0,0,1-2.91,3.16,10.31,10.31,0,0,1-4.57,1.44l-7.17.64Zm8.26,13.2a7,7,0,0,0,3.11-1,4.94,4.94,0,0,0,1.93-2.16,6.34,6.34,0,0,0-.53-5.93,5,5,0,0,0-2.28-1.78,7,7,0,0,0-3.24-.41l-4,.36,1,11.25Z"/><path class="cls-2" d="M614,347.7l.14,2.56-12.33.69-.92-16.44,12-.67.14,2.56-8.95.5.24,4.27,7.94-.44.14,2.51-7.94.44.25,4.54Z"/><path class="cls-2" d="M636.46,349.74,633,345a6.21,6.21,0,0,1-.63,0l-3.72,0,.06,4.8-3.06,0-.2-16.47,6.78-.08A9.11,9.11,0,0,1,636,334a5.42,5.42,0,0,1,2.46,2,5.67,5.67,0,0,1,.88,3.12,5.56,5.56,0,0,1-.87,3.21,5.37,5.37,0,0,1-2.57,2l3.85,5.37Zm-1.27-13a4.72,4.72,0,0,0-3-.81l-3.57,0,.08,6.56,3.57,0a4.63,4.63,0,0,0,3-.9,3,3,0,0,0,1-2.45A3,3,0,0,0,635.2,336.73Z"/><path class="cls-2" d="M656.14,347.41l0,2.56-12.35-.22.29-16.47,12,.22,0,2.56-9-.16-.08,4.28,8,.14,0,2.52-8-.14-.08,4.54Zm-4.77-18.56,3.46.06-4.15,3.15-2.54,0Z"/><path class="cls-2" d="M664,336.38l-.23,5,7.94.37-.12,2.58-7.94-.37-.29,6.3-3.05-.14.76-16.45,12,.56-.12,2.56Z"/><path class="cls-2" d="M677.32,334.51l3,.22-1,13.84,8.59.64-.19,2.58-11.64-.86Z"/><path class="cls-2" d="M703.52,350.82l-.26,2.55L691,352.1l1.69-16.38,12,1.24-.26,2.55-8.92-.92-.44,4.26,7.91.82-.26,2.51-7.91-.82-.47,4.52Z"/><path class="cls-2" d="M717.53,355.25l-3.59-6.8-5.22,5.61-3.45-.47,7.19-7.5-4.65-8.77,3.43.46,3.39,6.37,4.91-5.25,3.29.45L716,346.46l5,9.27Z"/><path class="cls-2" d="M726.84,355.82a8.09,8.09,0,0,1-2.61-3.53,8.74,8.74,0,0,1,1.48-8.55,8.06,8.06,0,0,1,3.65-2.45,10,10,0,0,1,8.95,1.55,8.12,8.12,0,0,1,2.62,3.52,8.8,8.8,0,0,1-1.48,8.58,8.14,8.14,0,0,1-3.65,2.44,10,10,0,0,1-8.95-1.55Zm7.79-1a5.37,5.37,0,0,0,2.39-1.69,6.27,6.27,0,0,0,1-5.87,5.36,5.36,0,0,0-1.69-2.39,6.3,6.3,0,0,0-5.84-1,5.38,5.38,0,0,0-2.39,1.69,6.25,6.25,0,0,0-1,5.87,5.34,5.34,0,0,0,1.69,2.39,6.29,6.29,0,0,0,5.84,1Z"/><path class="cls-2" d="M747.3,343.68l3,.63-2.88,13.58,8.42,1.79-.54,2.53-11.41-2.42Z"/><path class="cls-2" d="M761.4,362.79a8.08,8.08,0,0,1-2.33-3.72,8.74,8.74,0,0,1,2.14-8.41,8.09,8.09,0,0,1,3.82-2.16,10,10,0,0,1,8.8,2.23,8.09,8.09,0,0,1,2.33,3.71,8.78,8.78,0,0,1-2.14,8.44A8.12,8.12,0,0,1,770.2,365a10,10,0,0,1-8.8-2.23Zm7.84-.41a5.37,5.37,0,0,0,2.52-1.5,6.26,6.26,0,0,0,1.46-5.77,5.36,5.36,0,0,0-1.5-2.51,6.28,6.28,0,0,0-5.75-1.46,5.35,5.35,0,0,0-2.52,1.5A6.26,6.26,0,0,0,762,358.4a5.36,5.36,0,0,0,1.5,2.52,6.31,6.31,0,0,0,5.75,1.46Z"/><path class="cls-2" d="M791.23,363.28l2.77.85-1.92,6.28a9.17,9.17,0,0,1-3.29.62,11.36,11.36,0,0,1-3.49-.5,9.4,9.4,0,0,1-4-2.38,8.11,8.11,0,0,1-2.15-3.82,8.79,8.79,0,0,1,2.55-8.32,8.08,8.08,0,0,1,3.93-2,9.51,9.51,0,0,1,4.7.29,10,10,0,0,1,3.4,1.76,7.37,7.37,0,0,1,2.14,2.75l-2.4,1.23a6.17,6.17,0,0,0-3.79-3.13,6.43,6.43,0,0,0-3.17-.21,5.33,5.33,0,0,0-2.62,1.34,5.88,5.88,0,0,0-1.61,2.66,5.79,5.79,0,0,0-.14,3.06,5.45,5.45,0,0,0,1.42,2.6,6.22,6.22,0,0,0,2.72,1.62,6.63,6.63,0,0,0,3.49.18Z"/><path class="cls-2" d="M801.5,358.22l2.89,1L799,374.78l-2.89-1Z"/><path class="cls-2" d="M816.33,378.6,815.4,381l-11.51-4.48,6-15.35,11.2,4.36-.93,2.39-8.35-3.25-1.55,4,7.41,2.89-.92,2.35L809.32,371l-1.65,4.23Z"/><path class="cls-2" d="M493.94,571h-6.31l-1.31,2.91h-1.43l5.19-11.25h1.41l5.19,11.25h-1.43Zm-6.47-12.44h1.89l2.73,2.47H490.7Zm6,11.29L490.8,564l-2.65,5.83Z"/><path class="cls-2" d="M505.65,562.68h1.43v10.05h6.27v1.19h-7.7Z"/><path class="cls-2" d="M523.44,571h-6.31l-1.31,2.91h-1.43l5.19-11.25H521l5.19,11.25h-1.43Zm-.52-1.15L520.3,564l-2.65,5.83Z"/><path class="cls-2" d="M542.85,573.92l-2.55-3.54-.78,0h-2.95v3.5h-1.43V562.68h4.38a5.29,5.29,0,0,1,3.44,1,3.49,3.49,0,0,1,1.25,2.86,3.66,3.66,0,0,1-.67,2.21,3.76,3.76,0,0,1-1.9,1.33l2.75,3.82Zm-.92-5.37a2.73,2.73,0,0,0,0-4,3.84,3.84,0,0,0-2.49-.7h-2.87v5.37h2.87A3.88,3.88,0,0,0,541.92,568.55Z"/><path class="cls-2" d="M556.55,572.73v1.19h-8.18V562.68h7.94v1.19H549.8v3.76h5.81v1.17H549.8v3.92Z"/><path class="cls-2" d="M570.12,562.68v11.25h-1.19l-7.07-8.78v8.78h-1.43V562.68h1.19l7.07,8.78v-8.78Z"/><path class="cls-2" d="M576.91,573.29a5.55,5.55,0,0,1-2.16-2.06,5.7,5.7,0,0,1,2.16-7.94,6.22,6.22,0,0,1,3.07-.76,5.47,5.47,0,0,1,4.28,1.67l-.92.94a4.47,4.47,0,0,0-3.32-1.35,4.8,4.8,0,0,0-2.37.59A4.31,4.31,0,0,0,576,566a4.72,4.72,0,0,0,0,4.6,4.27,4.27,0,0,0,1.65,1.61,4.77,4.77,0,0,0,2.37.59,4.4,4.4,0,0,0,3.32-1.35l.92.94A5.51,5.51,0,0,1,580,574,6.31,6.31,0,0,1,576.91,573.29Z"/><path class="cls-2" d="M589.4,573.29a5.52,5.52,0,0,1-2.17-2.06,5.69,5.69,0,0,1,2.17-7.94,6.27,6.27,0,0,1,3.07-.76,6.35,6.35,0,0,1,3.09.74,5.56,5.56,0,0,1,2.16,2.07,5.9,5.9,0,0,1,0,5.88,5.57,5.57,0,0,1-2.16,2.06,6.71,6.71,0,0,1-6.16,0Zm5.42-1.07a4.25,4.25,0,0,0,1.65-1.61,4.47,4.47,0,0,0,.6-2.3,4.53,4.53,0,0,0-.6-2.32,4.29,4.29,0,0,0-1.65-1.61,5,5,0,0,0-4.7,0,4.31,4.31,0,0,0-1.65,1.61,4.53,4.53,0,0,0-.6,2.32,4.47,4.47,0,0,0,.6,2.3,4.27,4.27,0,0,0,1.65,1.61,5,5,0,0,0,4.7,0Z"/><path class="cls-2" d="M612,562.68v11.25h-1.19l-7.07-8.78v8.78h-1.43V562.68h1.19l7.07,8.78v-8.78Z"/><path class="cls-2" d="M619,563.87h-4v-1.19h9.35v1.19h-4v10.05H619Z"/><path class="cls-2" d="M635,573.92l-2.55-3.54-.78,0h-2.95v3.5h-1.43V562.68h4.38a5.29,5.29,0,0,1,3.44,1,3.49,3.49,0,0,1,1.25,2.86,3.66,3.66,0,0,1-.67,2.21,3.76,3.76,0,0,1-1.9,1.33l2.75,3.82Zm-.92-5.37a2.73,2.73,0,0,0,0-4,3.84,3.84,0,0,0-2.49-.7h-2.87v5.37h2.87A3.88,3.88,0,0,0,634.11,568.55Z"/><path class="cls-2" d="M648.72,572.73v1.19h-8.18V562.68h7.94v1.19H642v3.76h5.81v1.17H642v3.92Z"/><path class="cls-2" d="M658.62,562.68h4.72a7.14,7.14,0,0,1,3.26.71,5.1,5.1,0,0,1,2.14,2,6.18,6.18,0,0,1,0,5.88,5.05,5.05,0,0,1-2.14,2,7.11,7.11,0,0,1-3.26.71h-4.72Zm4.66,10.05a4.88,4.88,0,0,0,3.51-1.21,4.75,4.75,0,0,0,0-6.45,4.89,4.89,0,0,0-3.51-1.2h-3.22v8.86Z"/><path class="cls-2" d="M674.47,572.77a4.92,4.92,0,0,1-1.27-3.62v-6.47h1.43v6.43a4,4,0,0,0,.86,2.77,3.21,3.21,0,0,0,2.49.94,3.24,3.24,0,0,0,2.5-.94,3.94,3.94,0,0,0,.86-2.77v-6.43h1.39v6.47a5,5,0,0,1-1.25,3.62,5.47,5.47,0,0,1-7,0Z"/><path class="cls-2" d="M702.72,569.07a2.77,2.77,0,0,1,.59,1.82,2.58,2.58,0,0,1-1.1,2.24,5.59,5.59,0,0,1-3.26.79h-5.33V562.68h5a5.1,5.1,0,0,1,3,.76,2.46,2.46,0,0,1,1.06,2.13,2.61,2.61,0,0,1-1.67,2.55A3,3,0,0,1,702.72,569.07ZM695,563.79v3.88h3.46a3.58,3.58,0,0,0,2.05-.5,1.66,1.66,0,0,0,.72-1.45,1.64,1.64,0,0,0-.72-1.44,3.63,3.63,0,0,0-2.05-.49Zm6.81,7a1.69,1.69,0,0,0-.74-1.52,4.1,4.1,0,0,0-2.22-.49H695v4h3.84Q701.86,572.81,701.85,570.8Z"/><path class="cls-2" d="M707.11,562.68h1.43v11.25h-1.43Z"/><path class="cls-2" d="M721.7,572.73v1.19h-8.18V562.68h7.94v1.19h-6.51v3.76h5.81v1.17h-5.81v3.92Z"/><path class="cls-2" d="M735.27,562.68v11.25h-1.19L727,565.14v8.78h-1.43V562.68h1.19l7.07,8.78v-8.78Z"/><path class="cls-2" d="M754.44,572.73v1.19h-8.18V562.68h7.94v1.19h-6.51v3.76h5.81v1.17h-5.81v3.92ZM752.21,561l-2-1.65-2,1.65H747l2.57-2.47H751l2.57,2.47Z"/><path class="cls-2" d="M760.27,563.87h-4v-1.19h9.35v1.19h-4v10.05h-1.43Z"/><path class="cls-2" d="M776.34,573.92l-2.55-3.54-.78,0h-2.95v3.5h-1.43V562.68H773a5.29,5.29,0,0,1,3.44,1,3.49,3.49,0,0,1,1.25,2.86,3.66,3.66,0,0,1-.67,2.21,3.76,3.76,0,0,1-1.9,1.33l2.75,3.82Zm-.92-5.37a2.73,2.73,0,0,0,0-4,3.84,3.84,0,0,0-2.49-.7h-2.87v5.37h2.87A3.88,3.88,0,0,0,775.41,568.55Z"/><path class="cls-2" d="M790,572.73v1.19h-8.18V562.68h7.94v1.19h-6.51v3.76h5.81v1.17h-5.81v3.92Z"/><path class="cls-2" d="M793.32,573.71a1,1,0,0,1-.3-.73,1,1,0,0,1,.3-.73,1,1,0,0,1,.74-.29,1.05,1.05,0,0,1,.76.29,1,1,0,0,1,.3.73,1,1,0,0,1-.31.73,1,1,0,0,1-.75.31A1,1,0,0,1,793.32,573.71Z"/><circle class="cls-2" cx="460.43" cy="496.28" r="8.27"/><polygon class="cls-2" points="307.61 500.72 338.13 427.04 328.48 427.04 301.69 491.83 301.06 491.83 274.62 427.04 265 427.04 295.11 500.72 307.61 500.72"/><path class="cls-2" d="M364.47,473.62A23.49,23.49,0,1,0,341,450.14,23.52,23.52,0,0,0,364.47,473.62Zm0-38.08a14.59,14.59,0,1,1-14.59,14.59A14.61,14.61,0,0,1,364.47,435.55Z"/><path class="cls-2" d="M486.56,472.84,460.34,427l-26,45.8ZM460.37,445l10.85,18.95H449.6Z"/><polygon class="cls-2" points="571.32 491.83 547.91 491.83 547.91 460.73 569.45 460.73 569.45 452.39 547.91 452.39 547.91 435.94 573.12 435.94 573.12 427.04 539.01 427.04 539.01 500.72 571.32 500.72 571.32 491.83"/><path class="cls-2" d="M362.48,492.05c-12.72,0-25.36-4-33.16-10.45l-3.53,8.53c9.42,6.82,22.86,10.82,36.69,10.82,26.69,0,50.37-13.76,63.34-36.81l21-37.09H436.48l-18.25,32.44L399.75,427H389.48l23.24,40.75A63,63,0,0,1,362.48,492.05Z"/><path class="cls-2" d="M634.92,427H609.77v73.67h25.15a36.84,36.84,0,1,0,0-73.67Zm0,64.79H618.65V435.92h16.27a28,28,0,1,1,0,55.92Z"/><path class="cls-2" d="M847.14,463.46a102,102,0,0,0-13.21-4,96.16,96.16,0,0,1-10-2.75,17.36,17.36,0,0,1-6.19-3.64,8,8,0,0,1-2.5-6.08,9.87,9.87,0,0,1,4.42-8.32q4.42-3.22,13.26-3.22A36.61,36.61,0,0,1,843.09,437a37.74,37.74,0,0,1,9.77,4.42l3.43-8.32a33.77,33.77,0,0,0-10.71-4.78,49,49,0,0,0-12.69-1.66q-9.26,0-15.5,2.81a21.07,21.07,0,0,0-9.31,7.49,18.72,18.72,0,0,0-3.07,10.5q0,7,3.59,11.07a21.91,21.91,0,0,0,8.63,6.08,104.3,104.3,0,0,0,13.26,4q6.55,1.56,10.14,2.81a16.36,16.36,0,0,1,6,3.59,8,8,0,0,1,2.44,6.08,9.46,9.46,0,0,1-4.47,8.16q-4.47,3.07-13.52,3.07a39.19,39.19,0,0,1-13.36-2.34,31.85,31.85,0,0,1-10.66-6.08L803.26,492a32.55,32.55,0,0,0,12,6.6,49.8,49.8,0,0,0,15.86,2.55,39.13,39.13,0,0,0,15.6-2.76,20.89,20.89,0,0,0,9.46-7.49,18.59,18.59,0,0,0,3.12-10.45q0-6.86-3.59-10.92A22.2,22.2,0,0,0,847.14,463.46Z"/><path class="cls-2" d="M764.1,463.46a102,102,0,0,0-13.21-4,96.16,96.16,0,0,1-10-2.75,17.36,17.36,0,0,1-6.19-3.64,8,8,0,0,1-2.5-6.08,9.87,9.87,0,0,1,4.42-8.32q4.42-3.22,13.26-3.22A36.61,36.61,0,0,1,760,437a37.74,37.74,0,0,1,9.77,4.42l3.43-8.32a33.77,33.77,0,0,0-10.71-4.78,49,49,0,0,0-12.69-1.66q-9.26,0-15.5,2.81a21.07,21.07,0,0,0-9.31,7.49,18.72,18.72,0,0,0-3.07,10.5q0,7,3.59,11.07a21.91,21.91,0,0,0,8.63,6.08,104.3,104.3,0,0,0,13.26,4q6.55,1.56,10.14,2.81a16.36,16.36,0,0,1,6,3.59,8,8,0,0,1,2.44,6.08,9.46,9.46,0,0,1-4.47,8.16q-4.47,3.07-13.52,3.07a39.19,39.19,0,0,1-13.36-2.34,31.85,31.85,0,0,1-10.66-6.08L720.22,492a32.55,32.55,0,0,0,12,6.6,49.8,49.8,0,0,0,15.86,2.55,39.13,39.13,0,0,0,15.6-2.76,20.89,20.89,0,0,0,9.46-7.49,18.59,18.59,0,0,0,3.12-10.45q0-6.86-3.59-10.92A22.2,22.2,0,0,0,764.1,463.46Z"/><path class="cls-2" d="M1011.41,469.49a22.22,22.22,0,0,0-8.58-6,102,102,0,0,0-13.21-4,96.16,96.16,0,0,1-10-2.75,17.33,17.33,0,0,1-6.19-3.64,8,8,0,0,1-2.5-6.08,9.87,9.87,0,0,1,4.42-8.32q4.42-3.22,13.26-3.22A36.56,36.56,0,0,1,998.77,437a37.68,37.68,0,0,1,9.77,4.42l3.43-8.32a33.77,33.77,0,0,0-10.71-4.78,49,49,0,0,0-12.69-1.66q-9.26,0-15.5,2.81a21.05,21.05,0,0,0-9.31,7.49,18.73,18.73,0,0,0-3.07,10.5q0,7,3.59,11.07a21.87,21.87,0,0,0,8.63,6.08,104,104,0,0,0,13.26,4q6.55,1.56,10.14,2.81a16.35,16.35,0,0,1,6,3.59,8,8,0,0,1,2.44,6.08,9.46,9.46,0,0,1-4.47,8.16q-4.47,3.07-13.52,3.07a39.15,39.15,0,0,1-13.36-2.34,31.87,31.87,0,0,1-10.66-6.08L958.95,492a32.55,32.55,0,0,0,12,6.6,49.8,49.8,0,0,0,15.86,2.55,39.13,39.13,0,0,0,15.6-2.76,20.88,20.88,0,0,0,9.46-7.49,18.59,18.59,0,0,0,3.12-10.45Q1015,473.55,1011.41,469.49Z"/><polygon class="cls-2" points="713.7 464.42 690.02 464.42 690.02 451.66 711.55 451.66 711.55 443.62 690.02 443.62 690.02 435.63 715.49 435.63 715.49 427.04 681.39 427.04 681.39 473.11 713.7 473.11 713.7 464.42"/><circle class="cls-2" cx="696.33" cy="496.28" r="8.27"/><path class="cls-2" d="M952.2,467.34c0,22.47-19.21,33.38-41.48,33.38v-8.9c18.12,0,31-8.49,32.29-22.06l-23.46-26.48v29.82h-8.9V427h6.47l26.18,29.77V427h8.9Z"/><path class="cls-2" d="M529,451.43h-8.9v8.34c-.78,2.55-4.82,4.4-8.83,4.4a14.32,14.32,0,1,1,0-28.62,14.84,14.84,0,0,1,11.31,5.16l6.76-5.78a23.73,23.73,0,0,0-18.07-8.28,23.21,23.21,0,1,0,0,46.42,17.86,17.86,0,0,0,8.51-1.93c-2,12.76-14.59,20.69-32.08,20.69v8.9c22,0,40.83-10.66,41.3-32.56Z"/><polygon class="cls-2" points="899.2 464.42 875.52 464.42 875.52 451.66 897.06 451.66 897.06 443.62 875.52 443.62 875.52 435.63 901 435.63 901 427.04 866.89 427.04 866.89 473.11 899.2 473.11 899.2 464.42"/><circle class="cls-2" cx="881.84" cy="496.28" r="8.27"/></svg>